<?xml version="1.0" standalone="no"?>
<!DOCTYPE svg PUBLIC "-//W3C//DTD SVG 1.1//EN" "http://www.w3.org/Graphics/SVG/1.1/DTD/svg11.dtd">
<svg version="1.1" width="1200" height="1110" onload="init(evt)" viewBox="0 0 1200 1110" xmlns="http://www.w3.org/2000/svg" xmlns:xlink="http://www.w3.org/1999/xlink">
<style type="text/css">
	text { font-family:Verdana; font-size:12px; fill:rgb(0,0,0); }
	#search { opacity:0.1; cursor:pointer; }
	#search:hover, #search.show { opacity:1; }
	#subtitle { text-anchor:middle; font-color:rgb(160,160,160); }
	#title { text-anchor:middle; font-size:17px}
	#unzoom { cursor:pointer; }
	#frames > *:hover { stroke:black; stroke-width:0.5; cursor:pointer; }
	.hide { display:none; }
	.parent { opacity:0.5; }
</style>
<script type="text/ecmascript">
<![CDATA[
	"use strict";
	var details, searchbtn, unzoombtn, matchedtxt, svg, searching;
	function init(evt) {
		details = document.getElementById("details").firstChild;
		searchbtn = document.getElementById("search");
		unzoombtn = document.getElementById("unzoom");
		matchedtxt = document.getElementById("matched");
		svg = document.getElementsByTagName("svg")[0];
		searching = 0;
	}

	window.addEventListener("click", function(e) {
		var target = find_group(e.target);
		if (target) {
			if (target.nodeName == "a") {
				if (e.ctrlKey === false) return;
				e.preventDefault();
			}
			if (target.classList.contains("parent")) unzoom();
			zoom(target);
		}
		else if (e.target.id == "unzoom") unzoom();
		else if (e.target.id == "search") search_prompt();
	}, false)

	// mouse-over for info
	// show
	window.addEventListener("mouseover", function(e) {
		var target = find_group(e.target);
		if (target) details.nodeValue = "Function: " + g_to_text(target);
	}, false)

	// clear
	window.addEventListener("mouseout", function(e) {
		var target = find_group(e.target);
		if (target) details.nodeValue = ' ';
	}, false)

	// ctrl-F for search
	window.addEventListener("keydown",function (e) {
		if (e.keyCode === 114 || (e.ctrlKey && e.keyCode === 70)) {
			e.preventDefault();
			search_prompt();
		}
	}, false)

	// functions
	function find_child(node, selector) {
		var children = node.querySelectorAll(selector);
		if (children.length) return children[0];
		return;
	}
	function find_group(node) {
		var parent = node.parentElement;
		if (!parent) return;
		if (parent.id == "frames") return node;
		return find_group(parent);
	}
	function orig_save(e, attr, val) {
		if (e.attributes["_orig_" + attr] != undefined) return;
		if (e.attributes[attr] == undefined) return;
		if (val == undefined) val = e.attributes[attr].value;
		e.setAttribute("_orig_" + attr, val);
	}
	function orig_load(e, attr) {
		if (e.attributes["_orig_"+attr] == undefined) return;
		e.attributes[attr].value = e.attributes["_orig_" + attr].value;
		e.removeAttribute("_orig_"+attr);
	}
	function g_to_text(e) {
		var text = find_child(e, "title").firstChild.nodeValue;
		return (text)
	}
	function g_to_func(e) {
		var func = g_to_text(e);
		// if there's any manipulation we want to do to the function
		// name before it's searched, do it here before returning.
		return (func);
	}
	function update_text(e) {
		var r = find_child(e, "rect");
		var t = find_child(e, "text");
		var w = parseFloat(r.attributes.width.value) -3;
		var txt = find_child(e, "title").textContent.replace(/\([^(]*\)$/,"");
		t.attributes.x.value = parseFloat(r.attributes.x.value) + 3;

		// Smaller than this size won't fit anything
		if (w < 2 * 12 * 0.59) {
			t.textContent = "";
			return;
		}

		t.textContent = txt;
		// Fit in full text width
		if (/^ *$/.test(txt) || t.getSubStringLength(0, txt.length) < w)
			return;

		for (var x = txt.length - 2; x > 0; x--) {
			if (t.getSubStringLength(0, x + 2) <= w) {
				t.textContent = txt.substring(0, x) + "..";
				return;
			}
		}
		t.textContent = "";
	}

	// zoom
	function zoom_reset(e) {
		if (e.attributes != undefined) {
			orig_load(e, "x");
			orig_load(e, "width");
		}
		if (e.childNodes == undefined) return;
		for (var i = 0, c = e.childNodes; i < c.length; i++) {
			zoom_reset(c[i]);
		}
	}
	function zoom_child(e, x, ratio) {
		if (e.attributes != undefined) {
			if (e.attributes.x != undefined) {
				orig_save(e, "x");
				e.attributes.x.value = (parseFloat(e.attributes.x.value) - x - 10) * ratio + 10;
				if (e.tagName == "text")
					e.attributes.x.value = find_child(e.parentNode, "rect[x]").attributes.x.value + 3;
			}
			if (e.attributes.width != undefined) {
				orig_save(e, "width");
				e.attributes.width.value = parseFloat(e.attributes.width.value) * ratio;
			}
		}

		if (e.childNodes == undefined) return;
		for (var i = 0, c = e.childNodes; i < c.length; i++) {
			zoom_child(c[i], x - 10, ratio);
		}
	}
	function zoom_parent(e) {
		if (e.attributes) {
			if (e.attributes.x != undefined) {
				orig_save(e, "x");
				e.attributes.x.value = 10;
			}
			if (e.attributes.width != undefined) {
				orig_save(e, "width");
				e.attributes.width.value = parseInt(svg.width.baseVal.value) - (10 * 2);
			}
		}
		if (e.childNodes == undefined) return;
		for (var i = 0, c = e.childNodes; i < c.length; i++) {
			zoom_parent(c[i]);
		}
	}
	function zoom(node) {
		var attr = find_child(node, "rect").attributes;
		var width = parseFloat(attr.width.value);
		var xmin = parseFloat(attr.x.value);
		var xmax = parseFloat(xmin + width);
		var ymin = parseFloat(attr.y.value);
		var ratio = (svg.width.baseVal.value - 2 * 10) / width;

		// XXX: Workaround for JavaScript float issues (fix me)
		var fudge = 0.0001;

		unzoombtn.classList.remove("hide");

		var el = document.getElementById("frames").children;
		for (var i = 0; i < el.length; i++) {
			var e = el[i];
			var a = find_child(e, "rect").attributes;
			var ex = parseFloat(a.x.value);
			var ew = parseFloat(a.width.value);
			var upstack;
			// Is it an ancestor
			if (0 == 0) {
				upstack = parseFloat(a.y.value) > ymin;
			} else {
				upstack = parseFloat(a.y.value) < ymin;
			}
			if (upstack) {
				// Direct ancestor
				if (ex <= xmin && (ex+ew+fudge) >= xmax) {
					e.classList.add("parent");
					zoom_parent(e);
					update_text(e);
				}
				// not in current path
				else
					e.classList.add("hide");
			}
			// Children maybe
			else {
				// no common path
				if (ex < xmin || ex + fudge >= xmax) {
					e.classList.add("hide");
				}
				else {
					zoom_child(e, xmin, ratio);
					update_text(e);
				}
			}
		}
	}
	function unzoom() {
		unzoombtn.classList.add("hide");
		var el = document.getElementById("frames").children;
		for(var i = 0; i < el.length; i++) {
			el[i].classList.remove("parent");
			el[i].classList.remove("hide");
			zoom_reset(el[i]);
			update_text(el[i]);
		}
	}

	// search
	function reset_search() {
		var el = document.querySelectorAll("#frames rect");
		for (var i = 0; i < el.length; i++) {
			orig_load(el[i], "fill")
		}
	}
	function search_prompt() {
		if (!searching) {
			var term = prompt("Enter a search term (regexp " +
			    "allowed, eg: ^ext4_)", "");
			if (term != null) {
				search(term)
			}
		} else {
			reset_search();
			searching = 0;
			searchbtn.classList.remove("show");
			searchbtn.firstChild.nodeValue = "Search"
			matchedtxt.classList.add("hide");
			matchedtxt.firstChild.nodeValue = ""
		}
	}
	function search(term) {
		var re = new RegExp(term);
		var el = document.getElementById("frames").children;
		var matches = new Object();
		var maxwidth = 0;
		for (var i = 0; i < el.length; i++) {
			var e = el[i];
			var func = g_to_func(e);
			var rect = find_child(e, "rect");
			if (func == null || rect == null)
				continue;

			// Save max width. Only works as we have a root frame
			var w = parseFloat(rect.attributes.width.value);
			if (w > maxwidth)
				maxwidth = w;

			if (func.match(re)) {
				// highlight
				var x = parseFloat(rect.attributes.x.value);
				orig_save(rect, "fill");
				rect.attributes.fill.value = "rgb(230,0,230)";

				// remember matches
				if (matches[x] == undefined) {
					matches[x] = w;
				} else {
					if (w > matches[x]) {
						// overwrite with parent
						matches[x] = w;
					}
				}
				searching = 1;
			}
		}
		if (!searching)
			return;

		searchbtn.classList.add("show");
		searchbtn.firstChild.nodeValue = "Reset Search";

		// calculate percent matched, excluding vertical overlap
		var count = 0;
		var lastx = -1;
		var lastw = 0;
		var keys = Array();
		for (k in matches) {
			if (matches.hasOwnProperty(k))
				keys.push(k);
		}
		// sort the matched frames by their x location
		// ascending, then width descending
		keys.sort(function(a, b){
			return a - b;
		});
		// Step through frames saving only the biggest bottom-up frames
		// thanks to the sort order. This relies on the tree property
		// where children are always smaller than their parents.
		var fudge = 0.0001;	// JavaScript floating point
		for (var k in keys) {
			var x = parseFloat(keys[k]);
			var w = matches[keys[k]];
			if (x >= lastx + lastw - fudge) {
				count += w;
				lastx = x;
				lastw = w;
			}
		}
		// display matched percent
		matchedtxt.classList.remove("hide");
		var pct = 100 * count / maxwidth;
		if (pct != 100) pct = pct.toFixed(1)
		matchedtxt.firstChild.nodeValue = "Matched: " + pct + "%";
	}
]]>
</script>
<rect x="0" y="0" width="100%" height="100%" fill="rgb(240,240,220)"/>
<text id="title" x="600" y="24">Flame Graph</text>
<text id="details" x="10" y="1093"> </text>
<text id="unzoom" x="10" y="24" class="hide">Reset Zoom</text>
<text id="search" x="1090" y="24">Search</text>
<text id="matched" x="1090" y="1093"> </text>
<g id="frames">
<g>
<title>all (3,999 samples, 100.00%)</title><rect x="10.0" y="1059.0" width="1180.0" height="15" fill="#fa7b7b" rx="2" ry="2"/>
<text x="13.0" y="1070.0">all</text>
</g>
<g>
<title>java/lang/Thread.run (3,998 samples, 99.97%)</title><rect x="10.0" y="1043.0" width="1179.7" height="15" fill="#5bec5b" rx="2" ry="2"/>
<text x="13.0" y="1054.0">java/lang/Thread.run</text>
</g>
<g>
<title>java/util/concurrent/ThreadPoolExecutor$Worker.run (3,998 samples, 99.97%)</title><rect x="10.0" y="1027.0" width="1179.7" height="15" fill="#67f867" rx="2" ry="2"/>
<text x="13.0" y="1038.0">java/util/concurrent/ThreadPoolExecutor$Worker.run</text>
</g>
<g>
<title>java/util/concurrent/ThreadPoolExecutor.runWorker (3,998 samples, 99.97%)</title><rect x="10.0" y="1011.0" width="1179.7" height="15" fill="#67f867" rx="2" ry="2"/>
<text x="13.0" y="1022.0">java/util/concurrent/ThreadPoolExecutor.runWorker</text>
</g>
<g>
<title>java/util/concurrent/FutureTask.run (3,998 samples, 99.97%)</title><rect x="10.0" y="995.0" width="1179.7" height="15" fill="#6bfc6b" rx="2" ry="2"/>
<text x="13.0" y="1006.0">java/util/concurrent/FutureTask.run</text>
</g>
<g>
<title>java/util/concurrent/Executors$RunnableAdapter.call (3,998 samples, 99.97%)</title><rect x="10.0" y="979.0" width="1179.7" height="15" fill="#55e655" rx="2" ry="2"/>
<text x="13.0" y="990.0">java/util/concurrent/Executors$RunnableAdapter.call</text>
</g>
<g>
<title>java/util/concurrent/FutureTask.run (3,998 samples, 99.97%)</title><rect x="10.0" y="963.0" width="1179.7" height="15" fill="#5aeb5a" rx="2" ry="2"/>
<text x="13.0" y="974.0">java/util/concurrent/FutureTask.run</text>
</g>
<g>
<title>org/openjdk/jmh/runner/BenchmarkHandler$BenchmarkTask.call (3,998 samples, 99.97%)</title><rect x="10.0" y="947.0" width="1179.7" height="15" fill="#67f867" rx="2" ry="2"/>
<text x="13.0" y="958.0">org/openjdk/jmh/runner/BenchmarkHandler$BenchmarkTask.call</text>
</g>
<g>
<title>org/openjdk/jmh/runner/BenchmarkHandler$BenchmarkTask.call (3,998 samples, 99.97%)</title><rect x="10.0" y="931.0" width="1179.7" height="15" fill="#58e958" rx="2" ry="2"/>
<text x="13.0" y="942.0">org/openjdk/jmh/runner/BenchmarkHandler$BenchmarkTask.call</text>
</g>
<g>
<title>java/lang/reflect/Method.invoke (3,998 samples, 99.97%)</title><rect x="10.0" y="915.0" width="1179.7" height="15" fill="#60f160" rx="2" ry="2"/>
<text x="13.0" y="926.0">java/lang/reflect/Method.invoke</text>
</g>
<g>
<title>jdk/internal/reflect/DelegatingMethodAccessorImpl.invoke (3,998 samples, 99.97%)</title><rect x="10.0" y="899.0" width="1179.7" height="15" fill="#5eef5e" rx="2" ry="2"/>
<text x="13.0" y="910.0">jdk/internal/reflect/DelegatingMethodAccessorImpl.invoke</text>
</g>
<g>
<title>jdk/internal/reflect/NativeMethodAccessorImpl.invoke (3,998 samples, 99.97%)</title><rect x="10.0" y="883.0" width="1179.7" height="15" fill="#62f362" rx="2" ry="2"/>
<text x="13.0" y="894.0">jdk/internal/reflect/NativeMethodAccessorImpl.invoke</text>
</g>
<g>
<title>jdk/internal/reflect/NativeMethodAccessorImpl.invoke0 (3,998 samples, 99.97%)</title><rect x="10.0" y="867.0" width="1179.7" height="15" fill="#5aeb5a" rx="2" ry="2"/>
<text x="13.0" y="878.0">jdk/internal/reflect/NativeMethodAccessorImpl.invoke0</text>
</g>
<g>
<title>pl/wyhasany/jmh_generated/MyBenchmark_record_hash_code_jmhTest.record_hash_code_AverageTime (3,998 samples, 99.97%)</title><rect x="10.0" y="851.0" width="1179.7" height="15" fill="#5ff05f" rx="2" ry="2"/>
<text x="13.0" y="862.0">pl/wyhasany/jmh_generated/MyBenchmark_record_hash_code_jmhTest.record_hash_code_AverageTime</text>
</g>
<g>
<title>pl/wyhasany/jmh_generated/MyBenchmark_record_hash_code_jmhTest.record_hash_code_avgt_jmhStub (3,998 samples, 99.97%)</title><rect x="10.0" y="835.0" width="1179.7" height="15" fill="#6cfd6c" rx="2" ry="2"/>
<text x="13.0" y="846.0">pl/wyhasany/jmh_generated/MyBenchmark_record_hash_code_jmhTest.record_hash_code_avgt_jmhStub</text>
</g>
<g>
<title>org/openjdk/jmh/infra/Blackhole.consume (224 samples, 5.60%)</title><rect x="23.6" y="819.0" width="66.1" height="15" fill="#6bfc6b" rx="2" ry="2"/>
<text x="26.6" y="830.0">org/ope..</text>
</g>
<g>
<title>pl/wyhasany/MyBenchmark.record_hash_code (3,728 samples, 93.22%)</title><rect x="89.7" y="819.0" width="1100.0" height="15" fill="#63f463" rx="2" ry="2"/>
<text x="92.7" y="830.0">pl/wyhasany/MyBenchmark.record_hash_code</text>
</g>
<g>
<title>pl/wyhasany/Record.hashCode (3,728 samples, 93.22%)</title><rect x="89.7" y="803.0" width="1100.0" height="15" fill="#65f665" rx="2" ry="2"/>
<text x="92.7" y="814.0">pl/wyhasany/Record.hashCode</text>
</g>
<g>
<title>java/lang/invoke/LambdaForm$MH.0x0000000800c31000.linkToTargetMethod (3,728 samples, 93.22%)</title><rect x="89.7" y="787.0" width="1100.0" height="15" fill="#54e554" rx="2" ry="2"/>
<text x="92.7" y="798.0">java/lang/invoke/LambdaForm$MH.0x0000000800c31000.linkToTargetMethod</text>
</g>
<g>
<title>java/lang/invoke/LambdaForm$MH.0x0000000800c30c00.invoke (3,728 samples, 93.22%)</title><rect x="89.7" y="771.0" width="1100.0" height="15" fill="#62f362" rx="2" ry="2"/>
<text x="92.7" y="782.0">java/lang/invoke/LambdaForm$MH.0x0000000800c30c00.invoke</text>
</g>
<g>
<title>java/lang/invoke/LambdaForm$MH.0x0000000800c2fc00.invoke (3,728 samples, 93.22%)</title><rect x="89.7" y="755.0" width="1100.0" height="15" fill="#50e150" rx="2" ry="2"/>
<text x="92.7" y="766.0">java/lang/invoke/LambdaForm$MH.0x0000000800c2fc00.invoke</text>
</g>
<g>
<title>java/lang/invoke/DirectMethodHandle$Holder.invokeStatic (3,551 samples, 88.80%)</title><rect x="89.7" y="739.0" width="1047.8" height="15" fill="#57e857" rx="2" ry="2"/>
<text x="92.7" y="750.0">java/lang/invoke/DirectMethodHandle$Holder.invokeStatic</text>
</g>
<g>
<title>java/util/Objects.hashCode (3,551 samples, 88.80%)</title><rect x="89.7" y="723.0" width="1047.8" height="15" fill="#54e554" rx="2" ry="2"/>
<text x="92.7" y="734.0">java/util/Objects.hashCode</text>
</g>
<g>
<title>java/lang/String.hashCode (3,551 samples, 88.80%)</title><rect x="89.7" y="707.0" width="1047.8" height="15" fill="#68f968" rx="2" ry="2"/>
<text x="92.7" y="718.0">java/lang/String.hashCode</text>
</g>
<g>
<title>java/lang/StringLatin1.hashCode (3,510 samples, 87.77%)</title><rect x="101.8" y="691.0" width="1035.7" height="15" fill="#54e554" rx="2" ry="2"/>
<text x="104.8" y="702.0">java/lang/StringLatin1.hashCode</text>
</g>
<g>
<title>org/openjdk/jmh/infra/Blackhole.consume (204 samples, 5.10%)</title><rect x="1077.3" y="675.0" width="60.2" height="15" fill="#5ced5c" rx="2" ry="2"/>
<text x="1080.3" y="686.0">org/op..</text>
</g>
<g>
<title>java/lang/invoke/LambdaForm$MH.0x0000000800c29400.invoke (177 samples, 4.43%)</title><rect x="1137.5" y="739.0" width="52.2" height="15" fill="#53e453" rx="2" ry="2"/>
<text x="1140.5" y="750.0">java/..</text>
</g>
<g>
<title>java/lang/invoke/DirectMethodHandle.checkBase (1 samples, 0.03%)</title><rect x="1189.4" y="723.0" width="0.3" height="15" fill="#53e453" rx="2" ry="2"/>
<text x="1192.4" y="734.0"></text>
</g>
<g>
<title>java/util/Objects.requireNonNull (1 samples, 0.03%)</title><rect x="1189.4" y="707.0" width="0.3" height="15" fill="#6dfe6d" rx="2" ry="2"/>
<text x="1192.4" y="718.0"></text>
</g>
<g>
<title>start_thread (1 samples, 0.03%)</title><rect x="1189.7" y="1043.0" width="0.3" height="15" fill="#e76262" rx="2" ry="2"/>
<text x="1192.7" y="1054.0"></text>
</g>
<g>
<title>thread_native_entry(Thread*) (1 samples, 0.03%)</title><rect x="1189.7" y="1027.0" width="0.3" height="15" fill="#f06e6e" rx="2" ry="2"/>
<text x="1192.7" y="1038.0"></text>
</g>
<g>
<title>Thread::call_run() (1 samples, 0.03%)</title><rect x="1189.7" y="1011.0" width="0.3" height="15" fill="#e1e144" rx="2" ry="2"/>
<text x="1192.7" y="1022.0"></text>
</g>
<g>
<title>JavaThread::thread_main_inner() (1 samples, 0.03%)</title><rect x="1189.7" y="995.0" width="0.3" height="15" fill="#dada42" rx="2" ry="2"/>
<text x="1192.7" y="1006.0"></text>
</g>
<g>
<title>CompileBroker::compiler_thread_loop() (1 samples, 0.03%)</title><rect x="1189.7" y="979.0" width="0.3" height="15" fill="#d0d03e" rx="2" ry="2"/>
<text x="1192.7" y="990.0"></text>
</g>
<g>
<title>CompileBroker::invoke_compiler_on_method(CompileTask*) (1 samples, 0.03%)</title><rect x="1189.7" y="963.0" width="0.3" height="15" fill="#dbdb42" rx="2" ry="2"/>
<text x="1192.7" y="974.0"></text>
</g>
<g>
<title>C2Compiler::compile_method(ciEnv*, ciMethod*, int, bool, DirectiveSet*) (1 samples, 0.03%)</title><rect x="1189.7" y="947.0" width="0.3" height="15" fill="#d7d741" rx="2" ry="2"/>
<text x="1192.7" y="958.0"></text>
</g>
<g>
<title>Compile::Compile(ciEnv*, ciMethod*, int, bool, bool, bool, bool, DirectiveSet*) (1 samples, 0.03%)</title><rect x="1189.7" y="931.0" width="0.3" height="15" fill="#d6d640" rx="2" ry="2"/>
<text x="1192.7" y="942.0"></text>
</g>
<g>
<title>ParseGenerator::generate(JVMState*) (1 samples, 0.03%)</title><rect x="1189.7" y="915.0" width="0.3" height="15" fill="#e5e545" rx="2" ry="2"/>
<text x="1192.7" y="926.0"></text>
</g>
<g>
<title>Parse::Parse(JVMState*, ciMethod*, float) (1 samples, 0.03%)</title><rect x="1189.7" y="899.0" width="0.3" height="15" fill="#d0d03e" rx="2" ry="2"/>
<text x="1192.7" y="910.0"></text>
</g>
<g>
<title>Parse::do_all_blocks() (1 samples, 0.03%)</title><rect x="1189.7" y="883.0" width="0.3" height="15" fill="#dfdf43" rx="2" ry="2"/>
<text x="1192.7" y="894.0"></text>
</g>
<g>
<title>Parse::do_one_block() (1 samples, 0.03%)</title><rect x="1189.7" y="867.0" width="0.3" height="15" fill="#d7d741" rx="2" ry="2"/>
<text x="1192.7" y="878.0"></text>
</g>
<g>
<title>Parse::do_call() (1 samples, 0.03%)</title><rect x="1189.7" y="851.0" width="0.3" height="15" fill="#dfdf43" rx="2" ry="2"/>
<text x="1192.7" y="862.0"></text>
</g>
<g>
<title>ParseGenerator::generate(JVMState*) (1 samples, 0.03%)</title><rect x="1189.7" y="835.0" width="0.3" height="15" fill="#d4d440" rx="2" ry="2"/>
<text x="1192.7" y="846.0"></text>
</g>
<g>
<title>Parse::Parse(JVMState*, ciMethod*, float) (1 samples, 0.03%)</title><rect x="1189.7" y="819.0" width="0.3" height="15" fill="#e2e244" rx="2" ry="2"/>
<text x="1192.7" y="830.0"></text>
</g>
<g>
<title>Parse::do_all_blocks() (1 samples, 0.03%)</title><rect x="1189.7" y="803.0" width="0.3" height="15" fill="#d0d03e" rx="2" ry="2"/>
<text x="1192.7" y="814.0"></text>
</g>
<g>
<title>Parse::do_one_block() (1 samples, 0.03%)</title><rect x="1189.7" y="787.0" width="0.3" height="15" fill="#d2d23f" rx="2" ry="2"/>
<text x="1192.7" y="798.0"></text>
</g>
<g>
<title>Parse::do_call() (1 samples, 0.03%)</title><rect x="1189.7" y="771.0" width="0.3" height="15" fill="#e0e044" rx="2" ry="2"/>
<text x="1192.7" y="782.0"></text>
</g>
<g>
<title>ParseGenerator::generate(JVMState*) (1 samples, 0.03%)</title><rect x="1189.7" y="755.0" width="0.3" height="15" fill="#e3e345" rx="2" ry="2"/>
<text x="1192.7" y="766.0"></text>
</g>
<g>
<title>Parse::Parse(JVMState*, ciMethod*, float) (1 samples, 0.03%)</title><rect x="1189.7" y="739.0" width="0.3" height="15" fill="#caca3c" rx="2" ry="2"/>
<text x="1192.7" y="750.0"></text>
</g>
<g>
<title>Parse::do_all_blocks() (1 samples, 0.03%)</title><rect x="1189.7" y="723.0" width="0.3" height="15" fill="#e4e445" rx="2" ry="2"/>
<text x="1192.7" y="734.0"></text>
</g>
<g>
<title>Parse::do_one_block() (1 samples, 0.03%)</title><rect x="1189.7" y="707.0" width="0.3" height="15" fill="#d7d741" rx="2" ry="2"/>
<text x="1192.7" y="718.0"></text>
</g>
<g>
<title>Parse::do_call() (1 samples, 0.03%)</title><rect x="1189.7" y="691.0" width="0.3" height="15" fill="#caca3c" rx="2" ry="2"/>
<text x="1192.7" y="702.0"></text>
</g>
<g>
<title>ParseGenerator::generate(JVMState*) (1 samples, 0.03%)</title><rect x="1189.7" y="675.0" width="0.3" height="15" fill="#cdcd3d" rx="2" ry="2"/>
<text x="1192.7" y="686.0"></text>
</g>
<g>
<title>Parse::Parse(JVMState*, ciMethod*, float) (1 samples, 0.03%)</title><rect x="1189.7" y="659.0" width="0.3" height="15" fill="#dbdb42" rx="2" ry="2"/>
<text x="1192.7" y="670.0"></text>
</g>
<g>
<title>Parse::do_all_blocks() (1 samples, 0.03%)</title><rect x="1189.7" y="643.0" width="0.3" height="15" fill="#e2e244" rx="2" ry="2"/>
<text x="1192.7" y="654.0"></text>
</g>
<g>
<title>Parse::do_one_block() (1 samples, 0.03%)</title><rect x="1189.7" y="627.0" width="0.3" height="15" fill="#d2d23f" rx="2" ry="2"/>
<text x="1192.7" y="638.0"></text>
</g>
<g>
<title>Parse::do_call() (1 samples, 0.03%)</title><rect x="1189.7" y="611.0" width="0.3" height="15" fill="#c9c93c" rx="2" ry="2"/>
<text x="1192.7" y="622.0"></text>
</g>
<g>
<title>ParseGenerator::generate(JVMState*) (1 samples, 0.03%)</title><rect x="1189.7" y="595.0" width="0.3" height="15" fill="#c8c83c" rx="2" ry="2"/>
<text x="1192.7" y="606.0"></text>
</g>
<g>
<title>Parse::Parse(JVMState*, ciMethod*, float) (1 samples, 0.03%)</title><rect x="1189.7" y="579.0" width="0.3" height="15" fill="#d5d540" rx="2" ry="2"/>
<text x="1192.7" y="590.0"></text>
</g>
<g>
<title>Parse::do_all_blocks() (1 samples, 0.03%)</title><rect x="1189.7" y="563.0" width="0.3" height="15" fill="#c9c93c" rx="2" ry="2"/>
<text x="1192.7" y="574.0"></text>
</g>
<g>
<title>Parse::do_one_block() (1 samples, 0.03%)</title><rect x="1189.7" y="547.0" width="0.3" height="15" fill="#cfcf3e" rx="2" ry="2"/>
<text x="1192.7" y="558.0"></text>
</g>
<g>
<title>Parse::do_call() (1 samples, 0.03%)</title><rect x="1189.7" y="531.0" width="0.3" height="15" fill="#e5e545" rx="2" ry="2"/>
<text x="1192.7" y="542.0"></text>
</g>
<g>
<title>ParseGenerator::generate(JVMState*) (1 samples, 0.03%)</title><rect x="1189.7" y="515.0" width="0.3" height="15" fill="#e3e345" rx="2" ry="2"/>
<text x="1192.7" y="526.0"></text>
</g>
<g>
<title>Parse::Parse(JVMState*, ciMethod*, float) (1 samples, 0.03%)</title><rect x="1189.7" y="499.0" width="0.3" height="15" fill="#e1e144" rx="2" ry="2"/>
<text x="1192.7" y="510.0"></text>
</g>
<g>
<title>Parse::do_all_blocks() (1 samples, 0.03%)</title><rect x="1189.7" y="483.0" width="0.3" height="15" fill="#cfcf3e" rx="2" ry="2"/>
<text x="1192.7" y="494.0"></text>
</g>
<g>
<title>Parse::do_one_block() (1 samples, 0.03%)</title><rect x="1189.7" y="467.0" width="0.3" height="15" fill="#d8d841" rx="2" ry="2"/>
<text x="1192.7" y="478.0"></text>
</g>
<g>
<title>Parse::do_call() (1 samples, 0.03%)</title><rect x="1189.7" y="451.0" width="0.3" height="15" fill="#d3d33f" rx="2" ry="2"/>
<text x="1192.7" y="462.0"></text>
</g>
<g>
<title>ParseGenerator::generate(JVMState*) (1 samples, 0.03%)</title><rect x="1189.7" y="435.0" width="0.3" height="15" fill="#dede43" rx="2" ry="2"/>
<text x="1192.7" y="446.0"></text>
</g>
<g>
<title>Parse::Parse(JVMState*, ciMethod*, float) (1 samples, 0.03%)</title><rect x="1189.7" y="419.0" width="0.3" height="15" fill="#d7d741" rx="2" ry="2"/>
<text x="1192.7" y="430.0"></text>
</g>
<g>
<title>Parse::do_all_blocks() (1 samples, 0.03%)</title><rect x="1189.7" y="403.0" width="0.3" height="15" fill="#dcdc42" rx="2" ry="2"/>
<text x="1192.7" y="414.0"></text>
</g>
<g>
<title>Parse::do_one_block() (1 samples, 0.03%)</title><rect x="1189.7" y="387.0" width="0.3" height="15" fill="#d7d741" rx="2" ry="2"/>
<text x="1192.7" y="398.0"></text>
</g>
<g>
<title>Parse::do_call() (1 samples, 0.03%)</title><rect x="1189.7" y="371.0" width="0.3" height="15" fill="#c9c93c" rx="2" ry="2"/>
<text x="1192.7" y="382.0"></text>
</g>
<g>
<title>ParseGenerator::generate(JVMState*) (1 samples, 0.03%)</title><rect x="1189.7" y="355.0" width="0.3" height="15" fill="#d5d540" rx="2" ry="2"/>
<text x="1192.7" y="366.0"></text>
</g>
<g>
<title>Parse::Parse(JVMState*, ciMethod*, float) (1 samples, 0.03%)</title><rect x="1189.7" y="339.0" width="0.3" height="15" fill="#e3e345" rx="2" ry="2"/>
<text x="1192.7" y="350.0"></text>
</g>
<g>
<title>Parse::do_all_blocks() (1 samples, 0.03%)</title><rect x="1189.7" y="323.0" width="0.3" height="15" fill="#e3e345" rx="2" ry="2"/>
<text x="1192.7" y="334.0"></text>
</g>
<g>
<title>Parse::do_one_block() (1 samples, 0.03%)</title><rect x="1189.7" y="307.0" width="0.3" height="15" fill="#dddd43" rx="2" ry="2"/>
<text x="1192.7" y="318.0"></text>
</g>
<g>
<title>Parse::do_call() (1 samples, 0.03%)</title><rect x="1189.7" y="291.0" width="0.3" height="15" fill="#d0d03e" rx="2" ry="2"/>
<text x="1192.7" y="302.0"></text>
</g>
<g>
<title>ParseGenerator::generate(JVMState*) (1 samples, 0.03%)</title><rect x="1189.7" y="275.0" width="0.3" height="15" fill="#dede43" rx="2" ry="2"/>
<text x="1192.7" y="286.0"></text>
</g>
<g>
<title>Parse::Parse(JVMState*, ciMethod*, float) (1 samples, 0.03%)</title><rect x="1189.7" y="259.0" width="0.3" height="15" fill="#dbdb42" rx="2" ry="2"/>
<text x="1192.7" y="270.0"></text>
</g>
<g>
<title>Parse::do_all_blocks() (1 samples, 0.03%)</title><rect x="1189.7" y="243.0" width="0.3" height="15" fill="#d2d23f" rx="2" ry="2"/>
<text x="1192.7" y="254.0"></text>
</g>
<g>
<title>Parse::do_one_block() (1 samples, 0.03%)</title><rect x="1189.7" y="227.0" width="0.3" height="15" fill="#dcdc42" rx="2" ry="2"/>
<text x="1192.7" y="238.0"></text>
</g>
<g>
<title>Parse::do_call() (1 samples, 0.03%)</title><rect x="1189.7" y="211.0" width="0.3" height="15" fill="#cccc3d" rx="2" ry="2"/>
<text x="1192.7" y="222.0"></text>
</g>
<g>
<title>ParseGenerator::generate(JVMState*) (1 samples, 0.03%)</title><rect x="1189.7" y="195.0" width="0.3" height="15" fill="#d5d540" rx="2" ry="2"/>
<text x="1192.7" y="206.0"></text>
</g>
<g>
<title>Parse::Parse(JVMState*, ciMethod*, float) (1 samples, 0.03%)</title><rect x="1189.7" y="179.0" width="0.3" height="15" fill="#e2e244" rx="2" ry="2"/>
<text x="1192.7" y="190.0"></text>
</g>
<g>
<title>Parse::do_all_blocks() (1 samples, 0.03%)</title><rect x="1189.7" y="163.0" width="0.3" height="15" fill="#e0e044" rx="2" ry="2"/>
<text x="1192.7" y="174.0"></text>
</g>
<g>
<title>Parse::do_one_block() (1 samples, 0.03%)</title><rect x="1189.7" y="147.0" width="0.3" height="15" fill="#d1d13f" rx="2" ry="2"/>
<text x="1192.7" y="158.0"></text>
</g>
<g>
<title>Parse::do_if(BoolTest::mask, Node*) (1 samples, 0.03%)</title><rect x="1189.7" y="131.0" width="0.3" height="15" fill="#cece3e" rx="2" ry="2"/>
<text x="1192.7" y="142.0"></text>
</g>
<g>
<title>Parse::adjust_map_after_if(BoolTest::mask, Node*, float, Parse::Block*, Parse::Block*) (1 samples, 0.03%)</title><rect x="1189.7" y="115.0" width="0.3" height="15" fill="#e2e244" rx="2" ry="2"/>
<text x="1192.7" y="126.0"></text>
</g>
<g>
<title>GraphKit::add_empty_predicates(int) (1 samples, 0.03%)</title><rect x="1189.7" y="99.0" width="0.3" height="15" fill="#d2d23f" rx="2" ry="2"/>
<text x="1192.7" y="110.0"></text>
</g>
<g>
<title>GraphKit::add_empty_predicate_impl(Deoptimization::DeoptReason, int) [clone .part.0] (1 samples, 0.03%)</title><rect x="1189.7" y="83.0" width="0.3" height="15" fill="#dcdc42" rx="2" ry="2"/>
<text x="1192.7" y="94.0"></text>
</g>
<g>
<title>GraphKit::uncommon_trap(int, ciKlass*, char const*, bool, bool) [clone .part.0] (1 samples, 0.03%)</title><rect x="1189.7" y="67.0" width="0.3" height="15" fill="#e4e445" rx="2" ry="2"/>
<text x="1192.7" y="78.0"></text>
</g>
<g>
<title>GraphKit::make_runtime_call(int, TypeFunc const*, unsigned char*, char const*, TypePtr const*, Node*, Node*, Node*, Node*, Node*, Node*, Node*, Node*) (1 samples, 0.03%)</title><rect x="1189.7" y="51.0" width="0.3" height="15" fill="#d9d941" rx="2" ry="2"/>
<text x="1192.7" y="62.0"></text>
</g>
<g>
<title>GraphKit::add_safepoint_edges(SafePointNode*, bool) (1 samples, 0.03%)</title><rect x="1189.7" y="35.0" width="0.3" height="15" fill="#dbdb42" rx="2" ry="2"/>
<text x="1192.7" y="46.0"></text>
</g>
</g>
</svg>

